<svg xmlns="http://www.w3.org/2000/svg" xmlns:xlink="http://www.w3.org/1999/xlink" version="1.1" x="0px" y="0px" viewBox="0 0 100 125" enable-background="new 0 0 100 100" xml:space="preserve"><g display="none"><g display="inline"><path d="M94.7,28.7h-2.4v-6.3H79.1v6.3h-2.2v-9.5H37.1v9.5h-1.9v-6.3H15.5v6.3H5.3v49.5h40.2c3.5,1.6,7.4,2.5,11.5,2.5    c4.1,0,8-0.9,11.5-2.5h26.2V28.7z M82.1,25.5h7.1v3.3h-7.1V25.5z M40.1,22.2h33.7v6.5h-5.4c-3.5-1.6-7.4-2.5-11.5-2.5    c-4.1,0-8,0.9-11.5,2.5h-5.4V22.2z M18.5,25.5h13.6v3.3H18.5V25.5z M8.3,75.2V31.7h7.2h19.6h1.9h3.4c-6.6,5-10.8,12.9-10.8,21.7    c0,8.9,4.3,16.8,10.8,21.8H8.3z M32.7,53.5c0-13.4,10.9-24.3,24.3-24.3c13.4,0,24.3,10.9,24.3,24.3c0,13.4-10.9,24.3-24.3,24.3    C43.6,77.8,32.7,66.9,32.7,53.5z M91.7,75.2H73.5c6.6-5,10.8-12.9,10.8-21.8c0-8.9-4.3-16.8-10.8-21.7h3.4h2.2h12.6V75.2z"/><path d="M57,40.9c-6.9,0-12.6,5.6-12.6,12.6c0,6.9,5.6,12.6,12.6,12.6c6.9,0,12.6-5.6,12.6-12.6C69.6,46.5,63.9,40.9,57,40.9z     M57,63.1c-5.3,0-9.6-4.3-9.6-9.6c0-5.3,4.3-9.6,9.6-9.6c5.3,0,9.6,4.3,9.6,9.6C66.6,58.8,62.3,63.1,57,63.1z"/></g></g><g display="none"><path display="inline" d="M86.6,26.1H67.3v-3.8L59.5,16H40.7l-7.8,6.3v3.8H13.6c-4.1,0-7.5,3.4-7.5,7.5v32.9c0,4.1,3.4,7.5,7.5,7.5   h73c4.1,0,7.5-3.4,7.5-7.5V33.6C94.1,29.4,90.7,26.1,86.6,26.1z M35.8,23.8l5.9-4.8h16.7l5.9,4.8V26H35.8V23.8z M9.1,38.1h26.2   c-2.6,3.3-4.2,7.4-4.2,11.9c0,4.5,1.6,8.7,4.2,11.9l0,0H9.1V38.1z M66.1,50c0,8.8-7.2,16-16,16c-8.8,0-16-7.2-16-16   c0-8.8,7.2-16,16-16C58.9,34,66.1,41.2,66.1,50z M91.1,66.5c0,2.5-2,4.5-4.5,4.5h-73c-2.5,0-4.5-2-4.5-4.5v-1.7h29.1l0,0   c3.3,2.6,7.4,4.2,11.9,4.2c4.5,0,8.6-1.6,11.9-4.2l0,0h29.1V66.5z M91.1,61.9H64.9l0,0c2.6-3.3,4.2-7.4,4.2-11.9   c0-4.5-1.6-8.7-4.2-11.9h26.2V61.9z M91.1,35.2H62l0,0c-3.3-2.6-7.4-4.2-11.9-4.2c-4.5,0-8.6,1.6-11.9,4.2l0,0H9.1v-1.7   c0-2.5,2-4.5,4.5-4.5h73c2.5,0,4.5,2,4.5,4.5V35.2z"/></g><g display="none"><g display="inline"><path d="M32,56c0,9.9,8,17.9,17.9,17.9s17.9-8,17.9-17.9s-8-17.9-17.9-17.9S32,46.1,32,56z M49.9,41.7c7.9,0,14.3,6.4,14.3,14.3    s-6.4,14.3-14.3,14.3c-7.9,0-14.3-6.4-14.3-14.3S42,41.7,49.9,41.7z"/><path d="M49.9,64.4c4.6,0,8.3-3.7,8.3-8.3c0-4.6-3.7-8.3-8.3-8.3c-4.6,0-8.3,3.7-8.3,8.3C41.5,60.6,45.3,64.4,49.9,64.4z     M49.9,50.7c2.9,0,5.3,2.4,5.3,5.3c0,2.9-2.4,5.3-5.3,5.3c-2.9,0-5.3-2.4-5.3-5.3C44.5,53.1,46.9,50.7,49.9,50.7z"/><path d="M34.3,40.2c4.4,0,7.9-3.5,7.9-7.9s-3.5-7.9-7.9-7.9s-7.9,3.5-7.9,7.9S30,40.2,34.3,40.2z M34.3,28c2.4,0,4.3,2,4.3,4.3    s-2,4.3-4.3,4.3s-4.3-2-4.3-4.3S31.9,28,34.3,28z"/><path d="M65.5,40.2c4.4,0,7.9-3.5,7.9-7.9s-3.5-7.9-7.9-7.9s-7.9,3.5-7.9,7.9S61.1,40.2,65.5,40.2z M65.5,28c2.4,0,4.3,2,4.3,4.3    s-2,4.3-4.3,4.3s-4.3-2-4.3-4.3S63.1,28,65.5,28z"/><path d="M35.3,17.7v-2.2h3.2V14c0-3.1-3.8-5.9-8-5.9c-4.3,0-8,2.8-8,5.9v1.5h3.2v2.2h-6.4v58.7V92h61.5V76.4V17.7H35.3z     M30.5,11.1c1.8,0,3.2,0.6,4.1,1.4h-2.3v5.2h-3.6v-5.2h-2.3C27.2,11.8,28.7,11.1,30.5,11.1z M77.8,89H22.3v-9.5h55.5V89z     M77.8,76.4H22.3V20.7h55.5V76.4z"/></g></g><g><g><g><path d="M27.8,24v62.4c0,0.7,0.5,1.4,1.3,1.5C36,89,43,89.5,50,89.5c7,0,14-0.6,20.9-1.6c0.7-0.1,1.3-0.7,1.3-1.5V24     c0-0.7-0.5-1.4-1.3-1.5c-13.8-2.2-28-2.2-41.8,0C28.4,22.6,27.8,23.3,27.8,24z M30.8,25.3c12.7-1.9,25.7-1.9,38.3,0v59.8     c-12.7,1.9-25.7,1.9-38.3,0V25.3z"/></g><g><path d="M50,85c10.1,0,18.3-8.2,18.3-18.3c0-5.2-2.2-10.1-6-13.6c2.4-2.9,3.7-6.5,3.7-10.3c0-8.9-7.2-16.1-16.1-16.1     c-8.9,0-16.1,7.2-16.1,16.1c0,3.8,1.3,7.4,3.7,10.3c-3.8,3.5-6,8.3-6,13.6c0,4.5,1.6,8.6,4.3,11.8c-0.2,0-0.4-0.1-0.6-0.1     c-1.6,0-2.8,1.3-2.8,2.8s1.3,2.8,2.8,2.8s2.8-1.3,2.8-2.8c0-0.2,0-0.4-0.1-0.6C41.3,83.4,45.5,85,50,85z M40.8,54.5     c0.3-0.3,0.6-0.7,0.6-1.1s-0.1-0.9-0.5-1.2c-2.6-2.5-4-5.8-4-9.4c0-7.2,5.9-13.1,13.1-13.1c7.2,0,13.1,5.9,13.1,13.1     c0,3.6-1.4,6.9-4,9.4c-0.3,0.3-0.5,0.7-0.5,1.2s0.2,0.8,0.6,1.1c3.9,2.9,6.1,7.4,6.1,12.2C65.3,75.2,58.5,82,50,82     c-8.5,0-15.3-6.9-15.3-15.3C34.7,61.9,36.9,57.4,40.8,54.5z"/></g><g><path d="M50,50.2c4.4,0,8.1-3.6,8.1-8.1s-3.6-8.1-8.1-8.1s-8.1,3.6-8.1,8.1S45.6,50.2,50,50.2z M50,37.1c2.8,0,5.1,2.3,5.1,5.1     s-2.3,5.1-5.1,5.1c-2.8,0-5.1-2.3-5.1-5.1S47.2,37.1,50,37.1z"/></g><g><path d="M50,78.4c6.1,0,11.1-5,11.1-11.1s-5-11.1-11.1-11.1s-11.1,5-11.1,11.1S43.9,78.4,50,78.4z M50,59.1     c4.5,0,8.1,3.6,8.1,8.1c0,4.5-3.6,8.1-8.1,8.1s-8.1-3.6-8.1-8.1C41.9,62.7,45.5,59.1,50,59.1z"/></g><g><path d="M76.4,17.2c-0.6-0.1-1.3-0.2-1.9-0.3V7c0-0.8-0.7-1.5-1.5-1.5H27c-0.8,0-1.5,0.7-1.5,1.5v10c-0.6,0.1-1.3,0.2-1.9,0.3     c-0.7,0.1-1.3,0.7-1.3,1.5v72.5c0,0.7,0.5,1.4,1.3,1.5c8.7,1.4,17.6,2.1,26.4,2.1s17.7-0.7,26.4-2.1c0.7-0.1,1.3-0.7,1.3-1.5     V18.7C77.7,18,77.1,17.3,76.4,17.2z M28.5,8.5h43v8c-7.1-1-14.3-1.6-21.5-1.6s-14.4,0.5-21.5,1.6V8.5z M74.7,89.9     c-16.3,2.4-33,2.4-49.3,0V20c16.3-2.4,33-2.4,49.3,0V89.9z"/></g><g><circle cx="64.9" cy="28.8" r="2.4"/></g></g></g><text x="0" y="115" fill="#000000" font-size="5px" font-weight="bold" font-family="'Helvetica Neue', Helvetica, Arial-Unicode, Arial, Sans-serif">Created by sachan</text><text x="0" y="120" fill="#000000" font-size="5px" font-weight="bold" font-family="'Helvetica Neue', Helvetica, Arial-Unicode, Arial, Sans-serif">from the Noun Project</text></svg>