<svg xmlns="http://www.w3.org/2000/svg" xmlns:xlink="http://www.w3.org/1999/xlink" version="1.1" x="0px" y="0px" viewBox="0 0 100 125" enable-background="new 0 0 100 100" xml:space="preserve"><g display="none"><g display="inline"><path d="M94.7,28.7h-2.4v-6.3H79.1v6.3h-2.2v-9.5H37.1v9.5h-1.9v-6.3H15.5v6.3H5.3v49.5h40.2c3.5,1.6,7.4,2.5,11.5,2.5    c4.1,0,8-0.9,11.5-2.5h26.2V28.7z M82.1,25.5h7.1v3.3h-7.1V25.5z M40.1,22.2h33.7v6.5h-5.4c-3.5-1.6-7.4-2.5-11.5-2.5    c-4.1,0-8,0.9-11.5,2.5h-5.4V22.2z M18.5,25.5h13.6v3.3H18.5V25.5z M8.3,75.2V31.7h7.2h19.6h1.9h3.4c-6.6,5-10.8,12.9-10.8,21.7    c0,8.9,4.3,16.8,10.8,21.8H8.3z M32.7,53.5c0-13.4,10.9-24.3,24.3-24.3c13.4,0,24.3,10.9,24.3,24.3c0,13.4-10.9,24.3-24.3,24.3    C43.6,77.8,32.7,66.9,32.7,53.5z M91.7,75.2H73.5c6.6-5,10.8-12.9,10.8-21.8c0-8.9-4.3-16.8-10.8-21.7h3.4h2.2h12.6V75.2z"/><path d="M57,40.9c-6.9,0-12.6,5.6-12.6,12.6c0,6.9,5.6,12.6,12.6,12.6c6.9,0,12.6-5.6,12.6-12.6C69.6,46.5,63.9,40.9,57,40.9z     M57,63.1c-5.3,0-9.6-4.3-9.6-9.6c0-5.3,4.3-9.6,9.6-9.6c5.3,0,9.6,4.3,9.6,9.6C66.6,58.8,62.3,63.1,57,63.1z"/></g></g><g><path d="M86.6,26.1H67.3v-3.8L59.5,16H40.7l-7.8,6.3v3.8H13.6c-4.1,0-7.5,3.4-7.5,7.5v32.9c0,4.1,3.4,7.5,7.5,7.5h73   c4.1,0,7.5-3.4,7.5-7.5V33.6C94.1,29.4,90.7,26.1,86.6,26.1z M35.8,23.8l5.9-4.8h16.7l5.9,4.8V26H35.8V23.8z M9.1,38.1h26.2   c-2.6,3.3-4.2,7.4-4.2,11.9c0,4.5,1.6,8.7,4.2,11.9l0,0H9.1V38.1z M66.1,50c0,8.8-7.2,16-16,16c-8.8,0-16-7.2-16-16   c0-8.8,7.2-16,16-16C58.9,34,66.1,41.2,66.1,50z M91.1,66.5c0,2.5-2,4.5-4.5,4.5h-73c-2.5,0-4.5-2-4.5-4.5v-1.7h29.1l0,0   c3.3,2.6,7.4,4.2,11.9,4.2c4.5,0,8.6-1.6,11.9-4.2l0,0h29.1V66.5z M91.1,61.9H64.9l0,0c2.6-3.3,4.2-7.4,4.2-11.9   c0-4.5-1.6-8.7-4.2-11.9h26.2V61.9z M91.1,35.2H62c0,0,0,0,0,0c-3.3-2.6-7.4-4.2-11.9-4.2c-4.5,0-8.6,1.6-11.9,4.2c0,0,0,0,0,0H9.1   v-1.7c0-2.5,2-4.5,4.5-4.5h73c2.5,0,4.5,2,4.5,4.5V35.2z"/></g><text x="0" y="115" fill="#000000" font-size="5px" font-weight="bold" font-family="'Helvetica Neue', Helvetica, Arial-Unicode, Arial, Sans-serif">Created by sachan</text><text x="0" y="120" fill="#000000" font-size="5px" font-weight="bold" font-family="'Helvetica Neue', Helvetica, Arial-Unicode, Arial, Sans-serif">from the Noun Project</text></svg>