<svg xmlns="http://www.w3.org/2000/svg" xmlns:xlink="http://www.w3.org/1999/xlink" version="1.1" x="0px" y="0px" viewBox="0 0 100 125" enable-background="new 0 0 100 100" xml:space="preserve"><g display="none"><g display="inline"><path d="M94.7,28.7h-2.4v-6.3H79.1v6.3h-2.2v-9.5H37.1v9.5h-1.9v-6.3H15.5v6.3H5.3v49.5h40.2c3.5,1.6,7.4,2.5,11.5,2.5    c4.1,0,8-0.9,11.5-2.5h26.2V28.7z M82.1,25.5h7.1v3.3h-7.1V25.5z M40.1,22.2h33.7v6.5h-5.4c-3.5-1.6-7.4-2.5-11.5-2.5    c-4.1,0-8,0.9-11.5,2.5h-5.4V22.2z M18.5,25.5h13.6v3.3H18.5V25.5z M8.3,75.2V31.7h7.2h19.6h1.9h3.4c-6.6,5-10.8,12.9-10.8,21.7    c0,8.9,4.3,16.8,10.8,21.8H8.3z M32.7,53.5c0-13.4,10.9-24.3,24.3-24.3c13.4,0,24.3,10.9,24.3,24.3c0,13.4-10.9,24.3-24.3,24.3    C43.6,77.8,32.7,66.9,32.7,53.5z M91.7,75.2H73.5c6.6-5,10.8-12.9,10.8-21.8c0-8.9-4.3-16.8-10.8-21.7h3.4h2.2h12.6V75.2z"/><path d="M57,40.9c-6.9,0-12.6,5.6-12.6,12.6c0,6.9,5.6,12.6,12.6,12.6c6.9,0,12.6-5.6,12.6-12.6C69.6,46.5,63.9,40.9,57,40.9z     M57,63.1c-5.3,0-9.6-4.3-9.6-9.6c0-5.3,4.3-9.6,9.6-9.6c5.3,0,9.6,4.3,9.6,9.6C66.6,58.8,62.3,63.1,57,63.1z"/></g></g><g display="none"><path display="inline" d="M86.6,26.1H67.3v-3.8L59.5,16H40.7l-7.8,6.3v3.8H13.6c-4.1,0-7.5,3.4-7.5,7.5v32.9c0,4.1,3.4,7.5,7.5,7.5   h73c4.1,0,7.5-3.4,7.5-7.5V33.6C94.1,29.4,90.7,26.1,86.6,26.1z M35.8,23.8l5.9-4.8h16.7l5.9,4.8V26H35.8V23.8z M9.1,38.1h26.2   c-2.6,3.3-4.2,7.4-4.2,11.9c0,4.5,1.6,8.7,4.2,11.9l0,0H9.1V38.1z M66.1,50c0,8.8-7.2,16-16,16c-8.8,0-16-7.2-16-16   c0-8.8,7.2-16,16-16C58.9,34,66.1,41.2,66.1,50z M91.1,66.5c0,2.5-2,4.5-4.5,4.5h-73c-2.5,0-4.5-2-4.5-4.5v-1.7h29.1l0,0   c3.3,2.6,7.4,4.2,11.9,4.2c4.5,0,8.6-1.6,11.9-4.2l0,0h29.1V66.5z M91.1,61.9H64.9l0,0c2.6-3.3,4.2-7.4,4.2-11.9   c0-4.5-1.6-8.7-4.2-11.9h26.2V61.9z M91.1,35.2H62l0,0c-3.3-2.6-7.4-4.2-11.9-4.2c-4.5,0-8.6,1.6-11.9,4.2l0,0H9.1v-1.7   c0-2.5,2-4.5,4.5-4.5h73c2.5,0,4.5,2,4.5,4.5V35.2z"/></g><g display="none"><g display="inline"><path d="M32,56c0,9.9,8,17.9,17.9,17.9s17.9-8,17.9-17.9s-8-17.9-17.9-17.9S32,46.1,32,56z M49.9,41.7c7.9,0,14.3,6.4,14.3,14.3    s-6.4,14.3-14.3,14.3c-7.9,0-14.3-6.4-14.3-14.3S42,41.7,49.9,41.7z"/><path d="M49.9,64.4c4.6,0,8.3-3.7,8.3-8.3c0-4.6-3.7-8.3-8.3-8.3c-4.6,0-8.3,3.7-8.3,8.3C41.5,60.6,45.3,64.4,49.9,64.4z     M49.9,50.7c2.9,0,5.3,2.4,5.3,5.3c0,2.9-2.4,5.3-5.3,5.3c-2.9,0-5.3-2.4-5.3-5.3C44.5,53.1,46.9,50.7,49.9,50.7z"/><path d="M34.3,40.2c4.4,0,7.9-3.5,7.9-7.9s-3.5-7.9-7.9-7.9s-7.9,3.5-7.9,7.9S30,40.2,34.3,40.2z M34.3,28c2.4,0,4.3,2,4.3,4.3    s-2,4.3-4.3,4.3s-4.3-2-4.3-4.3S31.9,28,34.3,28z"/><path d="M65.5,40.2c4.4,0,7.9-3.5,7.9-7.9s-3.5-7.9-7.9-7.9s-7.9,3.5-7.9,7.9S61.1,40.2,65.5,40.2z M65.5,28c2.4,0,4.3,2,4.3,4.3    s-2,4.3-4.3,4.3s-4.3-2-4.3-4.3S63.1,28,65.5,28z"/><path d="M35.3,17.7v-2.2h3.2V14c0-3.1-3.8-5.9-8-5.9c-4.3,0-8,2.8-8,5.9v1.5h3.2v2.2h-6.4v58.7V92h61.5V76.4V17.7H35.3z     M30.5,11.1c1.8,0,3.2,0.6,4.1,1.4h-2.3v5.2h-3.6v-5.2h-2.3C27.2,11.8,28.7,11.1,30.5,11.1z M77.8,89H22.3v-9.5h55.5V89z     M77.8,76.4H22.3V20.7h55.5V76.4z"/></g></g><g display="none"><g display="inline"><g><path d="M27.8,24v62.4c0,0.7,0.5,1.4,1.3,1.5C36,89,43,89.5,50,89.5c7,0,14-0.6,20.9-1.6c0.7-0.1,1.3-0.7,1.3-1.5V24     c0-0.7-0.5-1.4-1.3-1.5c-13.8-2.2-28-2.2-41.8,0C28.4,22.6,27.8,23.3,27.8,24z M30.8,25.3c12.7-1.9,25.7-1.9,38.3,0v59.8     c-12.7,1.9-25.7,1.9-38.3,0V25.3z"/></g><g><path d="M50,85c10.1,0,18.3-8.2,18.3-18.3c0-5.2-2.2-10.1-6-13.6c2.4-2.9,3.7-6.5,3.7-10.3c0-8.9-7.2-16.1-16.1-16.1     c-8.9,0-16.1,7.2-16.1,16.1c0,3.8,1.3,7.4,3.7,10.3c-3.8,3.5-6,8.3-6,13.6c0,4.5,1.6,8.6,4.3,11.8c-0.2,0-0.4-0.1-0.6-0.1     c-1.6,0-2.8,1.3-2.8,2.8s1.3,2.8,2.8,2.8s2.8-1.3,2.8-2.8c0-0.2,0-0.4-0.1-0.6C41.3,83.4,45.5,85,50,85z M40.8,54.5     c0.3-0.3,0.6-0.7,0.6-1.1s-0.1-0.9-0.5-1.2c-2.6-2.5-4-5.8-4-9.4c0-7.2,5.9-13.1,13.1-13.1c7.2,0,13.1,5.9,13.1,13.1     c0,3.6-1.4,6.9-4,9.4c-0.3,0.3-0.5,0.7-0.5,1.2s0.2,0.8,0.6,1.1c3.9,2.9,6.1,7.4,6.1,12.2C65.3,75.2,58.5,82,50,82     c-8.5,0-15.3-6.9-15.3-15.3C34.7,61.9,36.9,57.4,40.8,54.5z"/></g><g><path d="M50,50.2c4.4,0,8.1-3.6,8.1-8.1s-3.6-8.1-8.1-8.1s-8.1,3.6-8.1,8.1S45.6,50.2,50,50.2z M50,37.1c2.8,0,5.1,2.3,5.1,5.1     s-2.3,5.1-5.1,5.1c-2.8,0-5.1-2.3-5.1-5.1S47.2,37.1,50,37.1z"/></g><g><path d="M50,78.4c6.1,0,11.1-5,11.1-11.1s-5-11.1-11.1-11.1s-11.1,5-11.1,11.1S43.9,78.4,50,78.4z M50,59.1     c4.5,0,8.1,3.6,8.1,8.1c0,4.5-3.6,8.1-8.1,8.1s-8.1-3.6-8.1-8.1C41.9,62.7,45.5,59.1,50,59.1z"/></g><g><path d="M76.4,17.2c-0.6-0.1-1.3-0.2-1.9-0.3V7c0-0.8-0.7-1.5-1.5-1.5H27c-0.8,0-1.5,0.7-1.5,1.5v10c-0.6,0.1-1.3,0.2-1.9,0.3     c-0.7,0.1-1.3,0.7-1.3,1.5v72.5c0,0.7,0.5,1.4,1.3,1.5c8.7,1.4,17.6,2.1,26.4,2.1s17.7-0.7,26.4-2.1c0.7-0.1,1.3-0.7,1.3-1.5     V18.7C77.7,18,77.1,17.3,76.4,17.2z M28.5,8.5h43v8c-7.1-1-14.3-1.6-21.5-1.6s-14.4,0.5-21.5,1.6V8.5z M74.7,89.9     c-16.3,2.4-33,2.4-49.3,0V20c16.3-2.4,33-2.4,49.3,0V89.9z"/></g><g><circle cx="64.9" cy="28.8" r="2.4"/></g></g></g><g display="none"><g display="inline"><path d="M79.9,24.8v-2.5c0-3.1-2.7-5.6-6-5.6h-3.3c-3.3,0-6,2.5-6,5.6v2.1h-1.7v-7.3c0-3-2.5-5.5-5.5-5.5H42.8    c-3,0-5.5,2.5-5.5,5.5v7.3h-2.8v-3.4c0-2.5-2.1-4.6-4.6-4.6s-4.6,2.1-4.6,4.6v3.4h-3.3c-3,0-5.5,2.5-5.5,5.5v51.5    c0,3,2.5,5.5,5.5,5.5H78c3,0,5.5-2.5,5.5-5.5V30C83.5,27.6,82,25.6,79.9,24.8z M28.5,21.1c0-0.8,0.6-1.4,1.4-1.4s1.4,0.6,1.4,1.4    v3.2h-2.8V21.1z M67.7,22.4c0-1.3,1.3-2.4,2.9-2.4h3.3c1.5,0,2.9,1.1,2.9,2.4v1.9h-9V22.4z M80.5,81.5c0,1.4-1.1,2.5-2.5,2.5H22.1    c-1.4,0-2.5-1.1-2.5-2.5V30c0-1.4,1.1-2.5,2.5-2.5h16.7c0.8,0,1.5-0.7,1.5-1.5v-8.8c0-1.4,1.1-2.5,2.5-2.5h14.6    c1.4,0,2.5,1.1,2.5,2.5V26c0,0.8,0.7,1.5,1.5,1.5H78c1.4,0,2.5,1.1,2.5,2.5V81.5z"/><path d="M50.1,44.1C44,44.1,39,49,39,55.1c0,6.1,5,11.1,11.1,11.1c6.1,0,11.1-5,11.1-11.1C61.2,49,56.2,44.1,50.1,44.1z     M50.1,63.2c-4.5,0-8.1-3.6-8.1-8.1c0-4.5,3.6-8.1,8.1-8.1c4.5,0,8.1,3.6,8.1,8.1C58.2,59.6,54.5,63.2,50.1,63.2z"/><path d="M44.1,27.4h11.6c0.9,0,1.6-0.7,1.6-1.6v-7.8c0-0.9-0.7-1.6-1.6-1.6H44.1c-0.9,0-1.6,0.7-1.6,1.6v7.8    C42.6,26.7,43.3,27.4,44.1,27.4z M45.7,19.7h8.5v4.6h-8.5V19.7z"/></g></g><g display="none"><line display="inline" fill="#000000" x1="9.7" y1="39.1" x2="90.3" y2="39.1"/><path display="inline" d="M86.3,26.1H75.7L75,22.2c-0.1-3-2.5-5.3-5.5-5.3h-16c-3,0-5.4,2.4-5.5,5.3l-0.7,3.9H13.7   c-3,0-5.5,2.5-5.5,5.5v46c0,3,2.5,5.5,5.5,5.5h72.7c3,0,5.5-2.5,5.5-5.5v-46C91.8,28.6,89.4,26.1,86.3,26.1z M13.7,29.1h34.8   c0.7,0,1.3-0.5,1.5-1.2l1-5.3c0-0.1,0-0.2,0-0.3c0-1.4,1.1-2.5,2.5-2.5h16c1.4,0,2.5,1.1,2.5,2.5c0,0.1,0,0.2,0,0.3l1,5.3   c0.1,0.7,0.8,1.2,1.5,1.2h11.8c1.4,0,2.5,1.1,2.5,2.5v6H72.5c-3.1-1.9-6.8-3-10.7-3c-3.9,0-7.6,1.1-10.7,3H11.2v-6   C11.2,30.2,12.3,29.1,13.7,29.1z M61.8,37.7c10,0,18.1,8.1,18.1,18.1s-8.1,18.1-18.1,18.1s-18.1-8.1-18.1-18.1S51.8,37.7,61.8,37.7   z M86.3,80.1H13.7c-1.4,0-2.5-1.1-2.5-2.5v-37h36c-4,3.8-6.4,9.2-6.4,15.1c0,11.6,9.5,21.1,21.1,21.1c11.6,0,21.1-9.5,21.1-21.1   c0-5.9-2.5-11.3-6.4-15.1h12.4v37C88.8,79,87.7,80.1,86.3,80.1z"/></g><g display="none"><path display="inline" fill="#000000" d="M87.1,86.8H12.9c-2.2,0-4-1.8-4-4V46.3c0-2.2,1.8-4,4-4h74.3c2.2,0,4,1.8,4,4v36.5   C91.1,85,89.3,86.8,87.1,86.8z"/><rect x="8.9" y="57.6" display="inline" fill="#000000" width="82.3" height="20.4"/><circle display="inline" fill="#000000" cx="58.7" cy="22.9" r="3.6"/><path display="inline" fill="#000000" d="M83.1,51.7H69.6c-0.5,0-1-0.5-1-1v-7.3c0-0.5,0.5-1,1-1h13.5c0.5,0,1,0.5,1,1v7.3   C84.1,51.3,83.7,51.7,83.1,51.7z"/><g display="inline"><path d="M87.1,40.8H66.4v-3.1h-4.3V35H65v-2.8c3-2,4.9-5.4,4.9-9.3c0-6.2-5-11.2-11.2-11.2s-11.2,5-11.2,11.2c0,3.8,2,7.3,4.9,9.3    V35h2.9v2.7H51v3.1H12.9c-3,0-5.5,2.5-5.5,5.5v9.9v23.4v3.3c0,3,2.5,5.5,5.5,5.5h74.3c3,0,5.5-2.5,5.5-5.5v-3.3V56.1v-9.9    C92.6,43.2,90.2,40.8,87.1,40.8z M50.5,22.9c0-4.5,3.7-8.2,8.2-8.2s8.2,3.7,8.2,8.2c0,4.5-3.7,8.2-8.2,8.2S50.5,27.4,50.5,22.9z     M82.6,43.9v6.3H70.1v-6.3H82.6z M68.8,59.1h20.8v17.4H66.1c2.3-3.2,3.7-7.2,3.7-11.4C69.8,63,69.4,61,68.8,59.1z M66.8,65.1    c0,9.2-7.5,16.8-16.8,16.8c-9.2,0-16.8-7.5-16.8-16.8S40.8,48.3,50,48.3C59.2,48.3,66.8,55.8,66.8,65.1z M33.9,76.5H10.4V59.1    h20.8c-0.6,1.9-0.9,3.9-0.9,5.9C30.3,69.3,31.6,73.3,33.9,76.5z M89.6,82.8c0,1.4-1.1,2.5-2.5,2.5H12.9c-1.4,0-2.5-1.1-2.5-2.5    v-3.3h26.2c3.5,3.3,8.2,5.3,13.4,5.3c5.2,0,9.9-2,13.4-5.3h26.2V82.8z M67.6,56.1c-3.3-6.4-9.9-10.8-17.6-10.8    c-7.7,0-14.3,4.4-17.6,10.8h-22v-9.9c0-1.4,1.1-2.5,2.5-2.5h54.3v7c0,1.4,1.1,2.5,2.5,2.5h13.5c1.4,0,2.5-1.1,2.5-2.5v-7h1.5    c1.4,0,2.5,1.1,2.5,2.5v9.9H67.6z"/><path d="M50,55.5c-5.3,0-9.6,4.3-9.6,9.6s4.3,9.6,9.6,9.6c5.3,0,9.6-4.3,9.6-9.6S55.3,55.5,50,55.5z M50,71.6    c-3.6,0-6.6-2.9-6.6-6.6s2.9-6.6,6.6-6.6c3.6,0,6.6,2.9,6.6,6.6S53.6,71.6,50,71.6z"/><path d="M58.7,28c2.8,0,5.1-2.3,5.1-5.1c0-2.8-2.3-5.1-5.1-5.1s-5.1,2.3-5.1,5.1C53.6,25.7,55.9,28,58.7,28z M58.7,20.8    c1.1,0,2.1,0.9,2.1,2.1S59.9,25,58.7,25c-1.1,0-2.1-0.9-2.1-2.1S57.6,20.8,58.7,20.8z"/></g></g><g display="none"><g display="inline"><path d="M50.4,48.3c-7.4,0-13.5-6.1-13.5-13.5s6.1-13.5,13.5-13.5s13.5,6.1,13.5,13.5S57.8,48.3,50.4,48.3z M50.4,24.3    c-5.8,0-10.5,4.7-10.5,10.5s4.7,10.5,10.5,10.5s10.5-4.7,10.5-10.5S56.2,24.3,50.4,24.3z"/></g><circle display="inline" fill="#000000" cx="27.2" cy="42.9" r="3.2"/><path display="inline" fill="#000000" d="M32.6,34.8H21.7c-0.5,0-1-0.5-1-1v-3.6c0-0.5,0.5-1,1-1h10.9c0.5,0,1,0.5,1,1v3.6   C33.6,34.4,33.2,34.8,32.6,34.8z"/><rect x="67.6" y="23.9" display="inline" fill="#000000" width="11.3" height="9.2"/><g display="inline"><path d="M26.8,38.2c-2.6,0-4.7,2.1-4.7,4.7c0,2.6,2.1,4.7,4.7,4.7c2.6,0,4.7-2.1,4.7-4.7C31.5,40.3,29.4,38.2,26.8,38.2z     M26.8,44.6c-0.9,0-1.7-0.8-1.7-1.7c0-0.9,0.8-1.7,1.7-1.7c0.9,0,1.7,0.8,1.7,1.7C28.5,43.8,27.7,44.6,26.8,44.6z"/><circle cx="68.2" cy="42.9" r="3.2"/><path d="M32.2,27.8H21.3c-1.4,0-2.5,1.1-2.5,2.5v3.6c0,1.4,1.1,2.5,2.5,2.5h10.9c1.4,0,2.5-1.1,2.5-2.5v-3.6    C34.7,28.9,33.6,27.8,32.2,27.8z M31.7,33.3h-9.9v-2.6h9.9V33.3z"/><path d="M80,22.4H65.7v12.2H80V22.4z M77,31.6h-8.3v-6.2H77V31.6z"/><path d="M86.3,48.3l-0.9-28.8c0-1.4-1.1-2.5-2.5-2.5H17.1c-1.4,0-2.5,1.1-2.5,2.5l-0.9,28.9h-0.1v21.3v1.8v9.1    c0,1.4,1.1,2.5,2.5,2.5h67.7c1.4,0,2.5-1.1,2.5-2.5v-9.1v-1.8L86.3,48.3L86.3,48.3z M17.6,20h64.8l1,29.6H56.8v-4.3h-3.2v4.3h-2.2    v-2.1h-3v2.1h-2.2v-4.3h-3.2v4.3H16.6L17.6,20z M53.7,52.6v14.5h-2.2V52.6H53.7z M48.5,52.6v14.5h-2.2V52.6H48.5z M16.6,52.6h26.5    v14.5H16.6V52.6z M83.4,71.4V80H16.6v-8.6v-1.3h66.7V71.4z M83.4,67.1H56.8V52.6h26.5V67.1z"/></g></g><g display="none"><rect x="7.9" y="45.3" display="inline" fill="#000000" width="23.7" height="44"/><path display="inline" fill="#000000" d="M76.9,21.3H62.2c-0.4,0-0.7-0.1-0.7-0.3l-0.2-5.6c0-0.2-0.2-0.3,0.2-0.3h15.7   c0.4,0,0.7,0.1,0.7,0.3L77.6,21C77.6,21.2,77.3,21.3,76.9,21.3z"/><g display="inline"><path d="M69.6,55c-6.8,0-12.3,5.5-12.3,12.3c0,6.8,5.5,12.3,12.3,12.3c6.8,0,12.3-5.5,12.3-12.3C81.8,60.6,76.3,55,69.6,55z     M69.6,76.6c-5.1,0-9.3-4.2-9.3-9.3c0-5.1,4.2-9.3,9.3-9.3c5.1,0,9.3,4.2,9.3,9.3C78.8,72.4,74.7,76.6,69.6,76.6z"/><path d="M77.2,13.8H61.5c-0.6,0-1.1,0.2-1.3,0.6c-0.1,0.2-0.4,0.6-0.2,1.2l0.2,5.4c0,0.8,0.6,1.6,2.1,1.6h14.7    c1.4,0,2.1-0.9,2.1-1.6l0.2-5.7C79.2,14.6,78.6,13.8,77.2,13.8z M76.3,19.9l-13.5,0l-0.1-3.4l13.7,0L76.3,19.9z"/><path d="M92.1,43.8H78.7c-0.3-0.9-1.1-1.7-2.2-2.4h1.5c1.4,0,2.5-1.1,2.5-2.5c0-1.4-1.1-2.5-2.5-2.5h-0.4v-1.7h2.8    c1.4,0,2.5-1.1,2.5-2.4l1-20.6c0-1.4-1.1-2.5-2.5-2.5H57.8c-1.4,0-2.5,1.1-2.5,2.6l1,20.4c0,1.4,1.1,2.5,2.5,2.5h2.8v1.7h-0.4    c-1.4,0-2.5,1.1-2.5,2.5c0,1.4,1.1,2.5,2.5,2.5h1.5c-1.1,0.7-1.9,1.5-2.2,2.4H31.5H7.9c-0.8,0-1.5,0.7-1.5,1.5v44    c0,0.8,0.7,1.5,1.5,1.5h23.7h60.6c0.8,0,1.5-0.7,1.5-1.5v-44C93.6,44.5,93,43.8,92.1,43.8z M30,87.8H9.4v-41H30V87.8z M59.3,31.7    l-1-19.5h22.4l-0.9,19.5H59.3z M33,87.8v-41h25.3c-7.2,4-12.1,11.7-12.1,20.5c0,8.8,4.9,16.5,12.1,20.5H33z M67.4,87.8    C57,86.7,48.9,78,48.9,67.3c0-10.6,8.1-19.4,18.4-20.5h4.4c10.3,1.1,18.4,9.9,18.4,20.5c0,10.6-8.1,19.4-18.4,20.5H67.4z     M90.6,87.8h-9.8c4.3-2.3,7.7-6,9.8-10.4V87.8z M90.6,57.2c-2.1-4.4-5.6-8-9.8-10.4h9.8V57.2z"/></g></g><g display="none"><line display="inline" fill="#000000" x1="15" y1="37.6" x2="85" y2="37.6"/><line display="inline" fill="#000000" x1="26.8" y1="76.7" x2="85" y2="76.7"/><line display="inline" fill="#000000" x1="27.4" y1="38.6" x2="27.4" y2="88.1"/><g display="inline"><path d="M56.1,62.5c6.3,0,11.4-5.1,11.4-11.4c0-6.3-5.1-11.4-11.4-11.4c-6.3,0-11.4,5.1-11.4,11.4C44.7,57.3,49.8,62.5,56.1,62.5z     M56.1,42.6c4.6,0,8.4,3.8,8.4,8.4c0,4.6-3.8,8.4-8.4,8.4c-4.6,0-8.4-3.8-8.4-8.4C47.7,46.4,51.5,42.6,56.1,42.6z"/><path d="M77,24.3h-3.6l-0.9-4.6c-0.1-5.2-4.3-9.3-9.5-9.3h-13c-5.2,0-9.4,4.2-9.5,9.3l-1,4.6H23c-5.2,0-9.5,4.3-9.5,9.5v46.3    c0,5.2,4.3,9.5,9.5,9.5h54c5.2,0,9.5-4.3,9.5-9.5V33.8C86.5,28.6,82.2,24.3,77,24.3z M25.9,86.6H23c-3.6,0-6.5-2.9-6.5-6.5v-41    h9.4V86.6z M83.5,80.1c0,3.6-2.9,6.5-6.5,6.5H28.9v-8.4h54.6V80.1z M83.5,75.2H28.9V39.1H38c-2.3,3.4-3.6,7.5-3.6,11.9    c0,11.9,9.7,21.7,21.7,21.7c11.9,0,21.7-9.7,21.7-21.7c0-4.4-1.3-8.5-3.6-11.9h9.3V75.2z M56.1,32.4c10.3,0,18.7,8.4,18.7,18.7    c0,10.3-8.4,18.7-18.7,18.7c-10.3,0-18.7-8.4-18.7-18.7C37.4,40.8,45.8,32.4,56.1,32.4z M83.5,36.1H71.8    c-3.9-4.1-9.5-6.7-15.7-6.7c-6.2,0-11.7,2.6-15.7,6.7H16.5v-2.3c0-3.6,2.9-6.5,6.5-6.5h17.6c0.7,0,1.3-0.5,1.5-1.2l1.3-5.9    c0-0.1,0-0.2,0-0.3c0-3.6,2.9-6.5,6.5-6.5h13c3.6,0,6.5,2.9,6.5,6.5c0,0.1,0,0.2,0,0.3l1.2,5.9c0.1,0.7,0.8,1.2,1.5,1.2H77    c3.6,0,6.5,2.9,6.5,6.5V36.1z"/></g></g><g><path fill="#000000" d="M79.9,32.7H67.3c-1.1,0-2-0.9-2-2V18c0-1.1,0.9-2,2-2h12.6c1.1,0,2,0.9,2,2v12.6   C81.9,31.8,81,32.7,79.9,32.7z"/><g><path d="M80.7,9.8H33.4H28h-8.6c-0.9,0-1.8,0.1-2.6,0.4c0,0,0,0-0.1,0c-3.9,1.2-6.8,4.8-6.8,9.1v61.3c0,5.2,4.3,9.5,9.5,9.5h61.3    c5.2,0,9.5-4.3,9.5-9.5V19.3C90.2,14.1,85.9,9.8,80.7,9.8z M87.2,19.3v16.5H61.3c-3.1-2.5-7.1-4-11.3-4c-4.3,0-8.2,1.5-11.3,4    h-3.7v-23h45.7C84.3,12.8,87.2,15.7,87.2,19.3z M50,34.8c8.4,0,15.2,6.8,15.2,15.2c0,8.4-6.8,15.2-15.2,15.2    c-8.4,0-15.2-6.8-15.2-15.2C34.8,41.6,41.6,34.8,50,34.8z M31.9,12.8v18.9c-0.7-0.4-1.6-0.6-2.5-0.6V12.8H31.9z M24,12.8h2.5v18.3    H24V12.8z M21,12.9v18.2h-0.3c-0.7,0-1.5,0.2-2.1,0.4V13.1L21,12.9z M20.7,34.2h8.8c1.4,0,2.5,1.1,2.5,2.5s-1.1,2.5-2.5,2.5h-8.8    c-1.4,0-2.5-1.1-2.5-2.5S19.3,34.2,20.7,34.2z M15.6,14.1v20.6c-0.2,0.4-0.3,0.8-0.3,1.2h-2.4V19.3C12.8,17.2,13.9,15.2,15.6,14.1    z M80.7,87.2H19.3c-3.6,0-6.5-2.9-6.5-6.5V38.8h2.8c0.8,2,2.8,3.4,5.1,3.4h8.8c2.3,0,4.2-1.4,5.1-3.4h1.2c-2.4,3.1-3.9,7-3.9,11.2    c0,10,8.1,18.2,18.2,18.2c10,0,18.2-8.1,18.2-18.2c0-4.2-1.5-8.1-3.9-11.2h22.9v41.8C87.2,84.3,84.3,87.2,80.7,87.2z"/><path d="M50,59.8c5.4,0,9.8-4.4,9.8-9.8c0-5.4-4.4-9.8-9.8-9.8c-5.4,0-9.8,4.4-9.8,9.8C40.2,55.4,44.6,59.8,50,59.8z M50,43.2    c3.8,0,6.8,3.1,6.8,6.8c0,3.8-3.1,6.8-6.8,6.8c-3.8,0-6.8-3.1-6.8-6.8C43.2,46.2,46.2,43.2,50,43.2z"/><path d="M67.3,34.2h12.6c1.9,0,3.5-1.6,3.5-3.5V18c0-1.9-1.6-3.5-3.5-3.5H67.3c-1.9,0-3.5,1.6-3.5,3.5v12.6    C63.8,32.6,65.3,34.2,67.3,34.2z M66.8,18c0-0.3,0.2-0.5,0.5-0.5h12.6c0.3,0,0.5,0.2,0.5,0.5v12.6c0,0.3-0.2,0.5-0.5,0.5H67.3    c-0.3,0-0.5-0.2-0.5-0.5V18z"/></g></g><text x="0" y="115" fill="#000000" font-size="5px" font-weight="bold" font-family="'Helvetica Neue', Helvetica, Arial-Unicode, Arial, Sans-serif">Created by sachan</text><text x="0" y="120" fill="#000000" font-size="5px" font-weight="bold" font-family="'Helvetica Neue', Helvetica, Arial-Unicode, Arial, Sans-serif">from the Noun Project</text></svg>