<svg xmlns="http://www.w3.org/2000/svg" xmlns:xlink="http://www.w3.org/1999/xlink" version="1.1" x="0px" y="0px" viewBox="0 0 100 125" enable-background="new 0 0 100 100" xml:space="preserve"><g display="none"><g display="inline"><path d="M94.7,28.7h-2.4v-6.3H79.1v6.3h-2.2v-9.5H37.1v9.5h-1.9v-6.3H15.5v6.3H5.3v49.5h40.2c3.5,1.6,7.4,2.5,11.5,2.5    c4.1,0,8-0.9,11.5-2.5h26.2V28.7z M82.1,25.5h7.1v3.3h-7.1V25.5z M40.1,22.2h33.7v6.5h-5.4c-3.5-1.6-7.4-2.5-11.5-2.5    c-4.1,0-8,0.9-11.5,2.5h-5.4V22.2z M18.5,25.5h13.6v3.3H18.5V25.5z M8.3,75.2V31.7h7.2h19.6h1.9h3.4c-6.6,5-10.8,12.9-10.8,21.7    c0,8.9,4.3,16.8,10.8,21.8H8.3z M32.7,53.5c0-13.4,10.9-24.3,24.3-24.3c13.4,0,24.3,10.9,24.3,24.3c0,13.4-10.9,24.3-24.3,24.3    C43.6,77.8,32.7,66.9,32.7,53.5z M91.7,75.2H73.5c6.6-5,10.8-12.9,10.8-21.8c0-8.9-4.3-16.8-10.8-21.7h3.4h2.2h12.6V75.2z"/><path d="M57,40.9c-6.9,0-12.6,5.6-12.6,12.6c0,6.9,5.6,12.6,12.6,12.6c6.9,0,12.6-5.6,12.6-12.6C69.6,46.5,63.9,40.9,57,40.9z     M57,63.1c-5.3,0-9.6-4.3-9.6-9.6c0-5.3,4.3-9.6,9.6-9.6c5.3,0,9.6,4.3,9.6,9.6C66.6,58.8,62.3,63.1,57,63.1z"/></g></g><g display="none"><path display="inline" d="M86.6,26.1H67.3v-3.8L59.5,16H40.7l-7.8,6.3v3.8H13.6c-4.1,0-7.5,3.4-7.5,7.5v32.9c0,4.1,3.4,7.5,7.5,7.5   h73c4.1,0,7.5-3.4,7.5-7.5V33.6C94.1,29.4,90.7,26.1,86.6,26.1z M35.8,23.8l5.9-4.8h16.7l5.9,4.8V26H35.8V23.8z M9.1,38.1h26.2   c-2.6,3.3-4.2,7.4-4.2,11.9c0,4.5,1.6,8.7,4.2,11.9l0,0H9.1V38.1z M66.1,50c0,8.8-7.2,16-16,16c-8.8,0-16-7.2-16-16   c0-8.8,7.2-16,16-16C58.9,34,66.1,41.2,66.1,50z M91.1,66.5c0,2.5-2,4.5-4.5,4.5h-73c-2.5,0-4.5-2-4.5-4.5v-1.7h29.1l0,0   c3.3,2.6,7.4,4.2,11.9,4.2c4.5,0,8.6-1.6,11.9-4.2l0,0h29.1V66.5z M91.1,61.9H64.9l0,0c2.6-3.3,4.2-7.4,4.2-11.9   c0-4.5-1.6-8.7-4.2-11.9h26.2V61.9z M91.1,35.2H62l0,0c-3.3-2.6-7.4-4.2-11.9-4.2c-4.5,0-8.6,1.6-11.9,4.2l0,0H9.1v-1.7   c0-2.5,2-4.5,4.5-4.5h73c2.5,0,4.5,2,4.5,4.5V35.2z"/></g><g display="none"><g display="inline"><path d="M50,59.3c5.1,0,9.3-4.2,9.3-9.3s-4.2-9.3-9.3-9.3s-9.3,4.2-9.3,9.3S44.9,59.3,50,59.3z M50,43.7c3.5,0,6.3,2.8,6.3,6.3    s-2.8,6.3-6.3,6.3s-6.3-2.8-6.3-6.3S46.5,43.7,50,43.7z"/><path d="M80.8,22.4H19.3c-1.4,0-2.5,1.1-2.5,2.5v50.1c0,1.4,1.1,2.5,2.5,2.5h61.5c1.4,0,2.5-1.1,2.5-2.5V24.9    C83.3,23.6,82.1,22.4,80.8,22.4z M59.2,25.5l2.2,11.1c-3.1-2.6-7-4.2-11.4-4.2c-4.4,0-8.3,1.6-11.4,4.2l2.2-11.2H59.2z M39.2,40.4    c2.6-3,6.5-4.9,10.8-4.9c8,0,14.5,6.5,14.5,14.5S58,64.5,50,64.5S35.5,58,35.5,50C35.5,46.3,36.9,43,39.2,40.4z M80.3,74.6H19.8    V25.4h17.9l-3.1,16.2c-1.4,2.5-2.1,5.3-2.1,8.4c0,9.7,7.9,17.5,17.5,17.5c9.7,0,17.5-7.9,17.5-17.5c0-3.1-0.8-5.9-2.2-8.4    l-3.2-16.1h18V74.6z"/></g></g><g display="none"><g display="inline"><path d="M56.3,28.7H35.1c-0.8,0-1.5,0.7-1.5,1.5V36c0,0.8,0.7,1.5,1.5,1.5h21.3c0.8,0,1.5-0.7,1.5-1.5v-5.8    C57.8,29.4,57.2,28.7,56.3,28.7z M54.8,34.5H36.6v-2.8h18.3V34.5z"/><path d="M81.6,28.7H60.4c-0.8,0-1.5,0.7-1.5,1.5V36c0,0.8,0.7,1.5,1.5,1.5h21.3c0.8,0,1.5-0.7,1.5-1.5v-5.8    C83.1,29.4,82.5,28.7,81.6,28.7z M80.1,34.5H61.9v-2.8h18.3V34.5z"/><path d="M45.4,49c-4.1,0-7.5,3.4-7.5,7.5s3.4,7.5,7.5,7.5s7.5-3.4,7.5-7.5S49.6,49,45.4,49z M45.4,61c-2.5,0-4.5-2-4.5-4.5    s2-4.5,4.5-4.5s4.5,2,4.5,4.5S47.9,61,45.4,61z"/><path d="M92.6,24.5H31.1c-0.8,0-1.5,0.7-1.5,1.5v2.8h-1.3c0.1-0.2,0.1-0.4,0.1-0.6v-0.8c0-1.1-0.9-2-2-2H11c-1.1,0-2,0.9-2,2v0.8    c0,0.2,0,0.4,0.1,0.6H7.4c-0.8,0-1.4,0.6-1.4,1.4v8.3H5.9v36.2h12.8v0h73.8c0.8,0,1.5-0.7,1.5-1.5v-33c0-0.1,0-0.1,0-0.2V26    C94.1,25.1,93.4,24.5,92.6,24.5z M32.6,27.5h58.5v11.1H32.6V27.5z M15.7,71.7H8.9V41.5h6.8V71.7z M8.8,38.5v-6.9h20.7v6.9H18.7v0    H8.8z M18.7,71.7V41.5h12.2c0.1,0,0.1,0,0.2,0h5.1c-2.6,1.6-4.7,3.9-6.2,6.5c-0.6-1.8-2.4-3.1-4.4-3.1c-2.6,0-4.7,2.1-4.7,4.7    s2.1,4.7,4.7,4.7c0.9,0,1.8-0.3,2.5-0.8c-0.2,1-0.3,1.9-0.3,2.9c0,6.5,3.6,12.2,8.9,15.3H18.7z M27.3,49.6c0,0.9-0.8,1.7-1.7,1.7    s-1.7-0.8-1.7-1.7s0.8-1.7,1.7-1.7S27.3,48.7,27.3,49.6z M30.8,56.5c0-8,6.5-14.6,14.6-14.6c8,0,14.6,6.5,14.6,14.6    c0,8-6.5,14.6-14.6,14.6C37.4,71,30.8,64.5,30.8,56.5z M91.1,71.7h-37c5.3-3,8.9-8.7,8.9-15.3c0-6.3-3.3-11.8-8.3-14.9h36.4V71.7z    "/></g></g><g display="none"><g display="inline"><path d="M54.4,77.2c15,0,27.2-12.2,27.2-27.2S69.4,22.8,54.4,22.8S27.2,35,27.2,50S39.4,77.2,54.4,77.2z M54.4,25.8    c13.4,0,24.2,10.9,24.2,24.2S67.8,74.2,54.4,74.2S30.2,63.4,30.2,50S41,25.8,54.4,25.8z"/><path d="M54.4,61.6C60.8,61.6,66,56.4,66,50c0-6.4-5.2-11.6-11.6-11.6c-6.4,0-11.6,5.2-11.6,11.6C42.8,56.4,48,61.6,54.4,61.6z     M54.4,41.4c4.7,0,8.6,3.8,8.6,8.6s-3.8,8.6-8.6,8.6s-8.6-3.8-8.6-8.6S49.7,41.4,54.4,41.4z"/><path d="M88.9,23.9h-2.2v-4.7c0-0.8-0.7-1.5-1.5-1.5H23.6c-0.8,0-1.5,0.7-1.5,1.5v14.9h-5.2c-0.4-1.4-1.8-2.5-3.3-2.5h-2.5    c-1.9,0-3.5,1.6-3.5,3.5v29.7c0,1.9,1.6,3.5,3.5,3.5h2.5c1.6,0,2.9-1,3.3-2.5h5.2v14.9c0,0.8,0.7,1.5,1.5,1.5h61.5    c0.8,0,1.5-0.7,1.5-1.5V42.6h2.2c1.9,0,3.5-1.6,3.5-3.5V27.4C92.4,25.5,90.8,23.9,88.9,23.9z M14.1,64.9c0,0.3-0.2,0.5-0.5,0.5    h-2.5c-0.3,0-0.5-0.2-0.5-0.5V35.1c0-0.3,0.2-0.5,0.5-0.5h2.5c0.3,0,0.5,0.2,0.5,0.5V64.9z M22.1,62.9h-5V37.1h5V62.9z M83.7,23.3    V24v3v12.6v3v1.3v35.4H25.1V68.8v-2.9v-3V37.2v-3V32V20.7h58.5V23.3z M89.4,39.1c0,0.3-0.2,0.5-0.5,0.5h-2.2V26.9h2.2    c0.3,0,0.5,0.2,0.5,0.5V39.1z"/></g></g><g display="none"><g display="inline"><path d="M57.4,47.4c-5.3,0-9.6,4.3-9.6,9.6s4.3,9.6,9.6,9.6s9.6-4.3,9.6-9.6S62.6,47.4,57.4,47.4z M57.4,63.5    c-3.6,0-6.6-2.9-6.6-6.6c0-3.6,2.9-6.6,6.6-6.6c3.6,0,6.6,2.9,6.6,6.6C63.9,60.6,61,63.5,57.4,63.5z"/><path d="M37.7,28.2H20.6c-1.4,0-2.5,1.1-2.5,2.5v5.3c0,1.4,1.1,2.5,2.5,2.5h17.1c1.4,0,2.5-1.1,2.5-2.5v-5.3    C40.2,29.3,39,28.2,37.7,28.2z M37.2,35.4H21.1v-4.3h16.1V35.4z"/><path d="M77.3,38.8h6c1.4,0,2.5-1.1,2.5-2.5v-6c0-1.4-1.1-2.5-2.5-2.5h-6c-1.4,0-2.5,1.1-2.5,2.5v6C74.8,37.7,75.9,38.8,77.3,38.8    z M77.8,30.8h5v5h-5V30.8z"/><path d="M89.3,22H10.8c-1.4,0-2.5,1.1-2.5,2.5v16.9v31.1v3c0,1.4,1.1,2.5,2.5,2.5h78.5c1.4,0,2.5-1.1,2.5-2.5v-3V41.4V24.5    C91.8,23.1,90.6,22,89.3,22z M46.8,25h22.6v6.6H46.8V25z M11.3,44.4H43c-2.9,3.4-4.7,7.8-4.7,12.6c0,4.8,1.8,9.2,4.7,12.6H11.3    V44.4z M11.3,75v-2.5h35c1.5,1.1,3.1,1.9,4.9,2.5H11.3z M41.2,56.9c0-8.9,7.2-16.1,16.1-16.1c8.9,0,16.1,7.2,16.1,16.1    s-7.2,16.1-16.1,16.1C48.5,73.1,41.2,65.8,41.2,56.9z M88.8,75H63.6c1.8-0.6,3.4-1.5,4.9-2.5h20.3V75z M88.8,69.5h-17    c2.9-3.4,4.7-7.7,4.7-12.6c0-4.8-1.8-9.2-4.7-12.6h17V69.5z M88.8,41.4H68.4c-3.1-2.2-6.9-3.6-11.1-3.6c-4.1,0-8,1.3-11.1,3.6h-35    V25h32.5v7.1c0,0.7,0.3,1.3,0.7,1.8c0.5,0.5,1.1,0.7,1.8,0.7h23.6c0.7,0,1.3-0.3,1.8-0.7c0.5-0.5,0.7-1.1,0.7-1.8V25h16.4V41.4z"/></g></g><g><g><path d="M49.9,42.7c0-6.7-5.4-12.1-12.1-12.1s-12.1,5.4-12.1,12.1s5.4,12.1,12.1,12.1S49.9,49.4,49.9,42.7z M28.8,42.7    c0-5,4.1-9.1,9.1-9.1s9.1,4.1,9.1,9.1c0,5-4.1,9.1-9.1,9.1S28.8,47.7,28.8,42.7z"/><path d="M64.5,50.9c-4.7,0-8.5,3.8-8.5,8.5s3.8,8.5,8.5,8.5s8.5-3.8,8.5-8.5S69.2,50.9,64.5,50.9z M64.5,64.9    c-3,0-5.5-2.4-5.5-5.5s2.5-5.5,5.5-5.5s5.5,2.4,5.5,5.5S67.5,64.9,64.5,64.9z"/><path d="M73.6,49.7V29.5H71c0-0.2,0.1-0.4,0.1-0.6V9.2c0-1.9-1.6-3.5-3.5-3.5H35.4c-1.9,0-3.5,1.6-3.5,3.5v17.4    c-6.6,2.4-11.3,8.8-11.3,16.2c0,6.5,3.6,12.1,8.9,15.1v6.9c-1.4,1.8-2.2,4-2.2,6.4c0,2.4,0.8,4.7,2.2,6.4v16.7h44.1V69.1    c2.6-2.4,4.2-5.9,4.2-9.7S76.2,52.1,73.6,49.7z M34.9,9.2c0-0.3,0.2-0.5,0.5-0.5h32.1c0.3,0,0.5,0.2,0.5,0.5v19.8    c0,0.3-0.2,0.5-0.5,0.5H48.8c-0.9-0.7-1.9-1.4-2.9-1.9h16.3c1.9,0,3.5-1.6,3.5-3.5v-10c0-1.9-1.6-3.5-3.5-3.5H40.7    c-1.9,0-3.5,1.6-3.5,3.5v10c0,0.5,0.1,1,0.3,1.5c-0.9,0-1.8,0.1-2.6,0.3V9.2z M40.7,24.5c-0.3,0-0.5-0.2-0.5-0.5v-10    c0-0.3,0.2-0.5,0.5-0.5h21.5c0.3,0,0.5,0.2,0.5,0.5v10c0,0.3-0.2,0.5-0.5,0.5H40.7z M23.6,42.7c0-7.9,6.4-14.3,14.3-14.3    s14.3,6.4,14.3,14.3S45.7,57,37.9,57S23.6,50.6,23.6,42.7z M70.6,91.3H32.5V80.3c1.6,0.9,3.4,1.5,5.4,1.5    c5.8,0,10.6-4.7,10.6-10.6c0-5.8-4.7-10.6-10.6-10.6c-2,0-3.8,0.5-5.4,1.5v-3c1.7,0.6,3.5,0.9,5.4,0.9c9.5,0,17.3-7.7,17.3-17.3    c0-3.8-1.3-7.4-3.4-10.2h18.9v15.1c-1.8-0.9-3.9-1.5-6.1-1.5c-7.3,0-13.3,6-13.3,13.3s6,13.3,13.3,13.3c2.2,0,4.2-0.5,6.1-1.5    V91.3z M30.3,71.2c0-4.2,3.4-7.6,7.6-7.6s7.6,3.4,7.6,7.6s-3.4,7.6-7.6,7.6S30.3,75.4,30.3,71.2z M64.5,69.7    c-5.7,0-10.3-4.6-10.3-10.3s4.6-10.3,10.3-10.3c5.7,0,10.3,4.6,10.3,10.3S70.2,69.7,64.5,69.7z"/><path d="M37.9,76.9c3.1,0,5.7-2.5,5.7-5.7c0-3.1-2.5-5.7-5.7-5.7s-5.7,2.5-5.7,5.7C32.2,74.3,34.7,76.9,37.9,76.9z M37.9,68.5    c1.5,0,2.7,1.2,2.7,2.7c0,1.5-1.2,2.7-2.7,2.7s-2.7-1.2-2.7-2.7C35.2,69.7,36.4,68.5,37.9,68.5z"/><path d="M58.6,84.3h9.9v-9.9h-9.9V84.3z M61.6,77.4h3.9v3.9h-3.9V77.4z"/><path d="M48.2,89.3h9.4V75.6h-9.4V89.3z M51.2,78.6h3.4v7.6h-3.4V78.6z"/></g></g><text x="0" y="115" fill="#000000" font-size="5px" font-weight="bold" font-family="'Helvetica Neue', Helvetica, Arial-Unicode, Arial, Sans-serif">Created by sachan</text><text x="0" y="120" fill="#000000" font-size="5px" font-weight="bold" font-family="'Helvetica Neue', Helvetica, Arial-Unicode, Arial, Sans-serif">from the Noun Project</text></svg>