<svg xmlns="http://www.w3.org/2000/svg" xmlns:xlink="http://www.w3.org/1999/xlink" version="1.1" x="0px" y="0px" viewBox="0 0 100 125" enable-background="new 0 0 100 100" xml:space="preserve"><g display="none"><g display="inline"><path d="M94.7,28.7h-2.4v-6.3H79.1v6.3h-2.2v-9.5H37.1v9.5h-1.9v-6.3H15.5v6.3H5.3v49.5h40.2c3.5,1.6,7.4,2.5,11.5,2.5    c4.1,0,8-0.9,11.5-2.5h26.2V28.7z M82.1,25.5h7.1v3.3h-7.1V25.5z M40.1,22.2h33.7v6.5h-5.4c-3.5-1.6-7.4-2.5-11.5-2.5    c-4.1,0-8,0.9-11.5,2.5h-5.4V22.2z M18.5,25.5h13.6v3.3H18.5V25.5z M8.3,75.2V31.7h7.2h19.6h1.9h3.4c-6.6,5-10.8,12.9-10.8,21.7    c0,8.9,4.3,16.8,10.8,21.8H8.3z M32.7,53.5c0-13.4,10.9-24.3,24.3-24.3c13.4,0,24.3,10.9,24.3,24.3c0,13.4-10.9,24.3-24.3,24.3    C43.6,77.8,32.7,66.9,32.7,53.5z M91.7,75.2H73.5c6.6-5,10.8-12.9,10.8-21.8c0-8.9-4.3-16.8-10.8-21.7h3.4h2.2h12.6V75.2z"/><path d="M57,40.9c-6.9,0-12.6,5.6-12.6,12.6c0,6.9,5.6,12.6,12.6,12.6c6.9,0,12.6-5.6,12.6-12.6C69.6,46.5,63.9,40.9,57,40.9z     M57,63.1c-5.3,0-9.6-4.3-9.6-9.6c0-5.3,4.3-9.6,9.6-9.6c5.3,0,9.6,4.3,9.6,9.6C66.6,58.8,62.3,63.1,57,63.1z"/></g></g><g display="none"><path display="inline" d="M86.6,26.1H67.3v-3.8L59.5,16H40.7l-7.8,6.3v3.8H13.6c-4.1,0-7.5,3.4-7.5,7.5v32.9c0,4.1,3.4,7.5,7.5,7.5   h73c4.1,0,7.5-3.4,7.5-7.5V33.6C94.1,29.4,90.7,26.1,86.6,26.1z M35.8,23.8l5.9-4.8h16.7l5.9,4.8V26H35.8V23.8z M9.1,38.1h26.2   c-2.6,3.3-4.2,7.4-4.2,11.9c0,4.5,1.6,8.7,4.2,11.9l0,0H9.1V38.1z M66.1,50c0,8.8-7.2,16-16,16c-8.8,0-16-7.2-16-16   c0-8.8,7.2-16,16-16C58.9,34,66.1,41.2,66.1,50z M91.1,66.5c0,2.5-2,4.5-4.5,4.5h-73c-2.5,0-4.5-2-4.5-4.5v-1.7h29.1l0,0   c3.3,2.6,7.4,4.2,11.9,4.2c4.5,0,8.6-1.6,11.9-4.2l0,0h29.1V66.5z M91.1,61.9H64.9l0,0c2.6-3.3,4.2-7.4,4.2-11.9   c0-4.5-1.6-8.7-4.2-11.9h26.2V61.9z M91.1,35.2H62l0,0c-3.3-2.6-7.4-4.2-11.9-4.2c-4.5,0-8.6,1.6-11.9,4.2l0,0H9.1v-1.7   c0-2.5,2-4.5,4.5-4.5h73c2.5,0,4.5,2,4.5,4.5V35.2z"/></g><g><g><path d="M50,59.3c5.1,0,9.3-4.2,9.3-9.3s-4.2-9.3-9.3-9.3s-9.3,4.2-9.3,9.3S44.9,59.3,50,59.3z M50,43.7c3.5,0,6.3,2.8,6.3,6.3    s-2.8,6.3-6.3,6.3s-6.3-2.8-6.3-6.3S46.5,43.7,50,43.7z"/><path d="M80.8,22.4H19.3c-1.4,0-2.5,1.1-2.5,2.5v50.1c0,1.4,1.1,2.5,2.5,2.5h61.5c1.4,0,2.5-1.1,2.5-2.5V24.9    C83.3,23.6,82.1,22.4,80.8,22.4z M59.2,25.5l2.2,11.1c-3.1-2.6-7-4.2-11.4-4.2c-4.4,0-8.3,1.6-11.4,4.2l2.2-11.2H59.2z M39.2,40.4    c2.6-3,6.5-4.9,10.8-4.9c8,0,14.5,6.5,14.5,14.5S58,64.5,50,64.5S35.5,58,35.5,50C35.5,46.3,36.9,43,39.2,40.4z M80.3,74.6H19.8    V25.4h17.9l-3.1,16.2c-1.4,2.5-2.1,5.3-2.1,8.4c0,9.7,7.9,17.5,17.5,17.5c9.7,0,17.5-7.9,17.5-17.5c0-3.1-0.8-5.9-2.2-8.4    l-3.2-16.1h18V74.6z"/></g></g><g display="none"><g display="inline"><path d="M57.4,47.4c-5.3,0-9.6,4.3-9.6,9.6s4.3,9.6,9.6,9.6s9.6-4.3,9.6-9.6S62.6,47.4,57.4,47.4z M57.4,63.5    c-3.6,0-6.6-2.9-6.6-6.6c0-3.6,2.9-6.6,6.6-6.6c3.6,0,6.6,2.9,6.6,6.6C63.9,60.6,61,63.5,57.4,63.5z"/><path d="M37.7,28.2H20.6c-1.4,0-2.5,1.1-2.5,2.5v5.3c0,1.4,1.1,2.5,2.5,2.5h17.1c1.4,0,2.5-1.1,2.5-2.5v-5.3    C40.2,29.3,39,28.2,37.7,28.2z M37.2,35.4H21.1v-4.3h16.1V35.4z"/><path d="M77.3,38.8h6c1.4,0,2.5-1.1,2.5-2.5v-6c0-1.4-1.1-2.5-2.5-2.5h-6c-1.4,0-2.5,1.1-2.5,2.5v6C74.8,37.7,75.9,38.8,77.3,38.8    z M77.8,30.8h5v5h-5V30.8z"/><path d="M89.3,22H10.8c-1.4,0-2.5,1.1-2.5,2.5v16.9v31.1v3c0,1.4,1.1,2.5,2.5,2.5h78.5c1.4,0,2.5-1.1,2.5-2.5v-3V41.4V24.5    C91.8,23.1,90.6,22,89.3,22z M46.8,25h22.6v6.6H46.8V25z M11.3,44.4H43c-2.9,3.4-4.7,7.8-4.7,12.6c0,4.8,1.8,9.2,4.7,12.6H11.3    V44.4z M11.3,75v-2.5h35c1.5,1.1,3.1,1.9,4.9,2.5H11.3z M41.2,56.9c0-8.9,7.2-16.1,16.1-16.1c8.9,0,16.1,7.2,16.1,16.1    s-7.2,16.1-16.1,16.1C48.5,73.1,41.2,65.8,41.2,56.9z M88.8,75H63.6c1.8-0.6,3.4-1.5,4.9-2.5h20.3V75z M88.8,69.5h-17    c2.9-3.4,4.7-7.7,4.7-12.6c0-4.8-1.8-9.2-4.7-12.6h17V69.5z M88.8,41.4H68.4c-3.1-2.2-6.9-3.6-11.1-3.6c-4.1,0-8,1.3-11.1,3.6h-35    V25h32.5v7.1c0,0.7,0.3,1.3,0.7,1.8c0.5,0.5,1.1,0.7,1.8,0.7h23.6c0.7,0,1.3-0.3,1.8-0.7c0.5-0.5,0.7-1.1,0.7-1.8V25h16.4V41.4z"/></g></g><text x="0" y="115" fill="#000000" font-size="5px" font-weight="bold" font-family="'Helvetica Neue', Helvetica, Arial-Unicode, Arial, Sans-serif">Created by sachan</text><text x="0" y="120" fill="#000000" font-size="5px" font-weight="bold" font-family="'Helvetica Neue', Helvetica, Arial-Unicode, Arial, Sans-serif">from the Noun Project</text></svg>